<svg width="40" height="40" viewBox="0 0 40 40" fill="none" xmlns="http://www.w3.org/2000/svg">
<path d="M30.9654 13.77H27.5734C27.1782 13.77 26.8022 13.6004 26.5406 13.3052L25.1646 11.7508C24.9598 11.5188 24.6646 11.3868 24.3558 11.3868C24.047 11.3868 23.7518 11.5196 23.547 11.7508L22.367 13.0844C21.9806 13.5204 21.4262 13.7708 20.8438 13.7708H2.27658C1.74778 15.278 1.40298 16.87 1.26538 18.5212H18.7934C19.1014 18.5212 19.3966 18.3956 19.6094 18.1732L21.2414 16.47C21.4454 16.2572 21.727 16.1372 22.0214 16.1372H22.0886C22.3982 16.1372 22.6926 16.27 22.8974 16.502L24.2726 18.0564C24.5342 18.3524 24.9102 18.5212 25.3054 18.5212H39.6126C39.475 16.8692 39.1302 15.2772 38.6014 13.7708H30.9646L30.9654 13.77Z" fill="black"/>
<path d="M11.8715 28.5113C12.1795 28.5113 12.4747 28.3857 12.6875 28.1633L14.3195 26.4601C14.5235 26.2473 14.8051 26.1273 15.0995 26.1273H15.1667C15.4763 26.1273 15.7707 26.2601 15.9755 26.4913L17.3507 28.0457C17.6123 28.3417 17.9883 28.5105 18.3835 28.5105H37.7723C38.4986 27.0097 39.0307 25.3993 39.3475 23.7121H20.7371C20.3419 23.7121 19.9659 23.5425 19.7043 23.2473L18.3291 21.6929C18.1243 21.4609 17.8291 21.3289 17.5203 21.3289C17.2115 21.3289 16.9163 21.4617 16.7115 21.6929L15.5315 23.0265C15.1451 23.4625 14.5907 23.7129 14.0075 23.7129H1.52905C1.84585 25.4001 2.37865 27.0105 3.10425 28.5113H11.8715Z" fill="black"/>
<path d="M25.627 8.57922C25.935 8.57922 26.2302 8.45362 26.443 8.23122L28.075 6.52802C28.279 6.31522 28.5606 6.19522 28.855 6.19522H28.9222C29.2318 6.19522 29.5262 6.32802 29.731 6.56002L31.1062 8.11442C31.3678 8.41042 31.7438 8.57922 32.139 8.57922H35.8262C32.315 3.91202 26.7302 0.892822 20.439 0.892822C14.1478 0.892822 8.56296 3.91202 5.05176 8.57922H25.627Z" fill="black"/>
<path d="M18.2217 33.2663H13.1793C12.7841 33.2663 12.4081 33.0967 12.1465 32.8015L10.7713 31.2471C10.5665 31.0151 10.2713 30.8831 9.96254 30.8831C9.65374 30.8831 9.35854 31.0159 9.15374 31.2471L7.97374 32.5807C7.58734 33.0167 7.03294 33.2671 6.44974 33.2671H6.37134C9.88414 37.0311 14.8865 39.3871 20.4409 39.3871C25.9953 39.3871 30.9969 37.0311 34.5105 33.2671H18.2217V33.2663Z" fill="black"/>
</svg>
