<svg width="40" height="40" viewBox="0 0 40 40" fill="none" xmlns="http://www.w3.org/2000/svg">
<path fill-rule="evenodd" clip-rule="evenodd" d="M39.9363 18.3762C40.9089 30.6991 30.7 40.908 18.3766 39.9358C8.68157 39.1708 0.82774 31.316 0.0637217 21.6214C-0.904935 9.29806 9.30299 -0.908861 21.6243 0.0642985C31.3184 0.829818 39.1712 8.68314 39.9368 18.3767" fill="#EA973D"/>
<path fill-rule="evenodd" clip-rule="evenodd" d="M20.6935 26.3649C20.394 26.3121 17.1279 25.756 17.0784 25.7473L18.0555 20.206C18.4386 20.2736 21.4666 20.8387 21.6636 20.8828C24.6376 21.5406 24.9174 23.4363 24.788 24.1703C24.6014 25.2284 23.3663 26.8362 20.6935 26.3649ZM19.3992 12.5658C19.8233 12.6426 21.3884 12.9225 22.3229 13.0873C24.6563 13.4987 25.1568 15.4393 25.0478 16.057C24.9127 16.8233 24.1878 18.517 21.409 18.1832C21.0879 18.1434 18.543 17.6858 18.4982 17.6754L19.3992 12.5658ZM26.876 19.9353C28.4017 19.2521 29.5196 18.3771 29.8654 16.4158C30.4145 13.3017 27.5365 11.2874 25.6602 10.7652C25.4662 10.7174 25.2709 10.6747 25.0746 10.6372L25.6044 7.65794L22.4976 7.11805L21.9803 10.0995L19.9017 9.72702L20.431 6.75911L17.257 6.20142L16.7323 9.15429C16.1723 9.06942 12.8272 8.47562 12.8272 8.47562L12.3622 11.1128C12.3622 11.1128 13.2082 11.262 13.4494 11.3085C14.4982 11.491 14.8546 12.2304 14.7743 12.6856L14.7473 12.8504L12.7418 24.2237C12.6565 24.6236 12.2741 24.8803 11.9088 24.8352C11.4293 24.772 10.7253 24.6325 10.7253 24.6325L9.5876 27.5144L13.3913 28.1891L12.862 31.1798L16.0266 31.7378L16.5489 28.7419L18.6285 29.1086L18.0951 32.1085L21.1967 32.6554L21.7243 29.6718C21.7243 29.6718 21.8964 29.6962 21.9531 29.7062C25.5321 30.3373 29.0217 28.7935 29.6667 25.4137C30.198 22.645 28.0755 20.6157 26.876 19.9353Z" fill="white"/>
</svg>
