<svg width="40" height="40" viewBox="0 0 40 40" fill="none" xmlns="http://www.w3.org/2000/svg">
<g clip-path="url(#clip0_5607_55599)">
<path fill-rule="evenodd" clip-rule="evenodd" d="M36.4887 24.1143C38.7611 15.0064 33.2177 5.78358 24.1097 3.5104C15.0051 1.23809 5.78355 6.78114 3.51046 15.8897C1.23799 24.9957 6.77662 34.2162 15.8859 36.4889C24.9951 38.7615 34.22 33.2188 36.4887 24.1143ZM15.1597 39.3997C25.8761 42.0733 36.7301 35.5529 39.3997 24.8397C42.0735 14.1229 35.5501 3.27368 24.8361 0.599684C14.1221 -2.07432 3.27353 4.44908 0.599726 15.1633C-2.07407 25.8775 4.44333 36.7261 15.1597 39.3997Z" fill="#8E87DB"/>
<path d="M24.1097 3.51038C33.2177 5.78356 38.7611 15.0064 36.4888 24.1143C34.22 33.2188 24.9951 38.7615 15.8859 36.4889C6.77663 34.2162 1.238 24.9957 3.51047 15.8897C5.78356 6.78112 15.0052 1.23807 24.1097 3.51038Z" fill="white"/>
<path d="M27.0001 20.3634L19.9942 8.73364L13.0583 20.3634L19.9942 24.3568L27.0001 20.3634Z" fill="#8E87DB"/>
<path d="M19.9942 31.5729L13.0583 21.6945L19.9942 25.758L26.7899 21.6945L19.9942 31.5729Z" fill="#8E87DB"/>
</g>
<defs>
<clipPath id="clip0_5607_55599">
<rect width="40" height="40" fill="white"/>
</clipPath>
</defs>
</svg>
