<svg width="40" height="40" viewBox="0 0 40 40" fill="none" xmlns="http://www.w3.org/2000/svg">
<path d="M40 20C40 31.0438 31.0664 40.0223 20.0223 40.0223C8.97852 40.0223 0 31.0438 0 20C0 8.9563 8.97852 -0.0222168 20.0223 -0.0222168C31.066 -0.0222168 40 8.9563 40 20Z" fill="#0245F5"/>
<path d="M30.3931 29.0684C31.0216 28.3501 31.6052 27.5869 32.0541 26.734L29.2707 25.3423C28.8667 26.0157 28.3279 26.6442 27.7892 27.1829C26.9811 27.9012 26.1731 28.3501 25.3201 28.4399C23.659 28.6644 22.5367 28.1706 20.8306 27.0931C19.0798 25.9708 17.1045 24.6689 14.2763 25.028C12.5704 25.2525 10.9991 26.1504 9.60759 27.7216C8.97907 28.4399 8.44036 29.2031 7.94653 30.0561L10.7748 31.4477C11.1788 30.7743 11.6727 30.1458 12.2563 29.6071C13.0195 28.8888 13.8275 28.4399 14.7254 28.3501C14.9499 28.3052 15.1744 28.3052 15.4437 28.3052C16.7008 28.3052 17.7333 28.799 19.1699 29.6969C20.786 30.7743 22.8511 32.0762 25.7241 31.7171C27.475 31.4926 29.0463 30.5948 30.3929 29.0684L30.3931 29.0684ZM30.3931 20.7184C31.0216 20.0001 31.6052 19.192 32.0541 18.384L29.2707 16.9473C28.8667 17.6656 28.3279 18.2493 27.7892 18.8329C26.9811 19.5511 26.1731 19.9552 25.3201 20.0899C23.659 20.2695 22.5367 19.7756 20.8306 18.6982C19.0798 17.5759 17.1045 16.3189 14.2763 16.678C12.5704 16.9025 10.9991 17.8004 9.60759 19.3267C8.97907 20.045 8.44036 20.8531 7.94653 21.6612L10.7748 23.0978C11.1788 22.3795 11.6727 21.7959 12.2563 21.2123C13.0195 20.494 13.8275 20.0899 14.7254 20.0002C14.9499 19.9553 15.1744 19.9553 15.4437 19.9553C16.7008 19.9553 17.7333 20.4491 19.1699 21.3469C20.786 22.3795 22.8511 23.6814 25.7241 23.3223C27.475 23.0978 29.0463 22.2448 30.3929 20.7184L30.3931 20.7184ZM30.3931 12.3235C31.0216 11.6052 31.6052 10.842 32.0541 9.98903L29.2707 8.59735C28.8667 9.27075 28.3279 9.89926 27.7892 10.438C26.9811 11.1563 26.1731 11.6052 25.3201 11.695C23.659 11.9195 22.5367 11.4256 20.8306 10.3482C19.0798 9.22586 17.1045 7.92395 14.2763 8.28309C12.5704 8.50756 10.9991 9.40544 9.60759 10.9767C8.97907 11.695 8.44036 12.4582 7.94653 13.3111L10.7748 14.7028C11.1788 14.0294 11.6727 13.4009 12.2563 12.8622C13.0195 12.1439 13.8275 11.695 14.7254 11.6052C14.9499 11.5603 15.1744 11.5603 15.4437 11.5603C16.7008 11.5603 17.7333 12.0541 19.1699 12.9519C20.786 14.0294 22.8511 15.3313 25.7241 14.9721C27.475 14.7477 29.0463 13.8498 30.3929 12.3234L30.3931 12.3235Z" fill="white"/>
</svg>
