<svg width="53" height="22" viewBox="0 0 53 22" fill="none" xmlns="http://www.w3.org/2000/svg">
<path fill-rule="evenodd" clip-rule="evenodd" d="M3.50538 0.404502C2.71521 0.404502 2.07465 1.04506 2.07465 1.83524C2.07465 2.62541 2.71521 3.26597 3.50538 3.26597H8.18586C8.17754 3.32838 8.17325 3.39206 8.17325 3.45674V5.00961C4.2931 5.63834 1.2103 8.78345 0.760157 12.8037L0.00896657 19.5125C-0.0789596 20.2978 0.486346 21.0057 1.27161 21.0936C2.05688 21.1815 2.76474 20.6162 2.85267 19.8309L3.60386 13.1221C3.89124 10.5555 5.76021 8.51458 8.17325 7.92727V19.6717C8.17325 20.4619 8.81381 21.1025 9.60399 21.1025C10.3942 21.1025 11.0347 20.4619 11.0347 19.6717V7.92293C13.5488 8.51896 15.4919 10.6523 15.7605 13.3249L16.413 19.8148C16.4921 20.6011 17.1935 21.1743 17.9797 21.0953C18.7659 21.0162 19.3392 20.3148 19.2601 19.5286L18.6077 13.0387C18.1914 8.89862 15.0279 5.64345 11.0347 5.00763V3.45674C11.0347 3.39206 11.0304 3.32838 11.0221 3.26597H15.6571C16.4473 3.26597 17.0878 2.62541 17.0878 1.83524C17.0878 1.04506 16.4473 0.404502 15.6571 0.404502H3.50538ZM25.9539 7.0494C25.2977 8.27627 24.9696 9.70999 24.9696 11.3506C24.9696 13.0054 25.2977 14.4463 25.9539 15.6731C26.6101 16.9 27.5017 17.8415 28.6287 18.4978C29.77 19.1397 31.0397 19.4607 32.4377 19.4607C33.8358 19.4607 35.0983 19.1397 36.2253 18.4978C37.3666 17.8415 38.2653 16.9 38.9216 15.6731C39.5921 14.4463 39.9273 13.0054 39.9273 11.3506C39.9273 9.70999 39.5921 8.27627 38.9216 7.0494C38.2653 5.82254 37.3666 4.88812 36.2253 4.24616C35.0983 3.58993 33.8358 3.26181 32.4377 3.26181C31.0397 3.26181 29.77 3.58993 28.6287 4.24616C27.5017 4.88812 26.6101 5.82254 25.9539 7.0494ZM28.7571 14.111C28.4148 13.3121 28.2436 12.392 28.2436 11.3506C28.2436 10.3092 28.4148 9.39614 28.7571 8.61152C29.1138 7.81263 29.606 7.19919 30.2337 6.77122C30.8756 6.32898 31.6103 6.10785 32.4377 6.10785C33.2652 6.10785 33.9927 6.32898 34.6204 6.77122C35.2624 7.19919 35.7546 7.81263 36.0969 8.61152C36.4536 9.39614 36.6319 10.3092 36.6319 11.3506C36.6319 12.392 36.4536 13.3121 36.0969 14.111C35.7546 14.9099 35.2624 15.5305 34.6204 15.9727C33.9927 16.4007 33.2652 16.6147 32.4377 16.6147C31.6103 16.6147 30.8756 16.4007 30.2337 15.9727C29.606 15.5305 29.1138 14.9099 28.7571 14.111ZM53 3.54H40.3747V6.30044H45.1252V19.2039H48.2495V6.30044H53V3.54Z" fill="url(#paint0_linear_14980_67584)"/>
<defs>
<linearGradient id="paint0_linear_14980_67584" x1="54.6442" y1="10.7536" x2="-7.83394" y2="10.7536" gradientUnits="userSpaceOnUse">
<stop stop-color="#03CDC1"/>
<stop offset="1" stop-color="#8AB9FF"/>
</linearGradient>
</defs>
</svg>
