<svg width="40" height="40" viewBox="0 0 40 40" fill="none" xmlns="http://www.w3.org/2000/svg">
<circle cx="20" cy="20" r="19" fill="#03CDC1" stroke="#03CDC1" stroke-width="2"/>
<path fill-rule="evenodd" clip-rule="evenodd" d="M13 6.61108C12.1716 6.61108 11.5 7.28266 11.5 8.11108C11.5 8.93951 12.1716 9.61108 13 9.61108H18.3779V11.513C14.0036 12.2247 10.6517 15.9976 10.6054 20.5714L10.5001 30.9848C10.4917 31.8132 11.1564 32.4915 11.9848 32.4999C12.8132 32.5083 13.4915 31.8436 13.4999 31.0152L13.6053 20.6017C13.6349 17.6791 15.6596 15.2399 18.3779 14.5728V31C18.3779 31.8284 19.0494 32.5 19.8779 32.5C20.7063 32.5 21.3779 31.8284 21.3779 31V14.5657C24.2327 15.2381 26.3662 17.7873 26.3972 20.846L26.5001 31.0152C26.5085 31.8436 27.1868 32.5083 28.0152 32.4999C28.8436 32.4915 29.5083 31.8132 29.4999 30.9848L29.397 20.8157C29.3494 16.1062 25.888 12.2239 21.3779 11.5099V9.61108H27C27.8284 9.61108 28.5 8.93951 28.5 8.11108C28.5 7.28266 27.8284 6.61108 27 6.61108H13Z" fill="white"/>
</svg>
