<svg width="25" height="25" viewBox="0 0 25 25" fill="none" xmlns="http://www.w3.org/2000/svg">
<path d="M12.5 25C19.4271 25 25 19.4271 25 12.5C25 5.57288 19.4271 0 12.5 0C5.57288 0 0 5.57288 0 12.5C0 19.4271 5.57288 25 12.5 25Z" fill="#2775CA"/>
<path d="M15.9371 14.4792C15.9371 12.6564 14.8434 12.0314 12.6559 11.771C11.0934 11.5626 10.7809 11.146 10.7809 10.4167C10.7809 9.6875 11.3018 9.21887 12.3434 9.21887C13.2809 9.21887 13.8018 9.53137 14.0621 10.3126C14.1143 10.4689 14.2705 10.573 14.4268 10.573H15.26C15.4684 10.573 15.6246 10.4167 15.6246 10.2085V10.1564C15.4163 9.0105 14.4788 8.12512 13.2809 8.021V6.771C13.2809 6.56262 13.1246 6.40637 12.8643 6.35425H12.083C11.8746 6.35425 11.7184 6.5105 11.6663 6.771V7.96887C10.1038 8.17725 9.11426 9.21887 9.11426 10.521C9.11426 12.2397 10.1559 12.9167 12.3434 13.1772C13.8018 13.4376 14.2705 13.7501 14.2705 14.5835C14.2705 15.4169 13.5413 15.9897 12.5518 15.9897C11.1975 15.9897 10.7288 15.4167 10.5725 14.6355C10.5205 14.4272 10.3643 14.323 10.208 14.323H9.32251C9.11426 14.323 8.95801 14.4792 8.95801 14.6876V14.7397C9.16626 16.0417 9.99963 16.9792 11.7184 17.2397V18.4897C11.7184 18.698 11.8746 18.8542 12.135 18.9064H12.9163C13.1246 18.9064 13.2809 18.7501 13.333 18.4897V17.2397C14.8955 16.9792 15.9371 15.8855 15.9371 14.4792Z" fill="white"/>
<path d="M9.84379 19.948C5.78129 18.4897 3.69791 13.9585 5.20841 9.948C5.98966 7.7605 7.70841 6.09387 9.84379 5.31262C10.0522 5.2085 10.1563 5.05225 10.1563 4.79175V4.06262C10.1563 3.85425 10.0522 3.698 9.84379 3.646C9.79166 3.646 9.68754 3.646 9.63541 3.698C4.68754 5.2605 1.97916 10.521 3.54166 15.4689C4.47916 18.3855 6.71879 20.6251 9.63541 21.5626C9.84379 21.6667 10.0522 21.5626 10.1042 21.3542C10.1563 21.3022 10.1563 21.2501 10.1563 21.146V20.4167C10.1563 20.2605 10 20.0522 9.84379 19.948ZM15.3647 3.698C15.1563 3.59387 14.9479 3.698 14.8959 3.90637C14.8438 3.9585 14.8438 4.0105 14.8438 4.11475V4.84387C14.8438 5.05225 15 5.2605 15.1563 5.36475C19.2188 6.823 21.3022 11.3542 19.7917 15.3647C19.0104 17.5522 17.2917 19.2189 15.1563 20.0001C14.9479 20.1042 14.8438 20.2605 14.8438 20.521V21.2501C14.8438 21.4585 14.9479 21.6147 15.1563 21.6667C15.2084 21.6667 15.3125 21.6667 15.3647 21.6147C20.3125 20.0522 23.0209 14.7917 21.4584 9.84387C20.5209 6.87512 18.2292 4.6355 15.3647 3.698Z" fill="white"/>
</svg>
